<?xml version="1.0" encoding="UTF-8" standalone="no"?>
<svg
   xmlns:dc="http://purl.org/dc/elements/1.1/"
   xmlns:cc="http://creativecommons.org/ns#"
   xmlns:rdf="http://www.w3.org/1999/02/22-rdf-syntax-ns#"
   xmlns:svg="http://www.w3.org/2000/svg"
   xmlns="http://www.w3.org/2000/svg"
   xmlns:sodipodi="http://sodipodi.sourceforge.net/DTD/sodipodi-0.dtd"
   xmlns:inkscape="http://www.inkscape.org/namespaces/inkscape"
   version="1.1"
   width="24"
   height="24"
   viewBox="0 0 24 24"
   id="svg4"
   sodipodi:docname="usbc.svg"
   inkscape:version="0.92.4 (5da689c313, 2019-01-14)">
  <metadata
     id="metadata10">
    <rdf:RDF>
      <cc:Work
         rdf:about="">
        <dc:format>image/svg+xml</dc:format>
        <dc:type
           rdf:resource="http://purl.org/dc/dcmitype/StillImage" />
        <dc:title></dc:title>
      </cc:Work>
    </rdf:RDF>
  </metadata>
  <defs
     id="defs8" />
  <sodipodi:namedview
     pagecolor="#ffffff"
     bordercolor="#666666"
     borderopacity="1"
     objecttolerance="10"
     gridtolerance="10"
     guidetolerance="10"
     inkscape:pageopacity="0"
     inkscape:pageshadow="2"
     inkscape:window-width="1902"
     inkscape:window-height="1016"
     id="namedview6"
     showgrid="false"
     showguides="true"
     inkscape:guide-bbox="true"
     inkscape:snap-bbox="true"
     inkscape:bbox-paths="true"
     inkscape:snap-intersection-paths="true"
     inkscape:bbox-nodes="true"
     inkscape:snap-bbox-edge-midpoints="true"
     inkscape:zoom="7.9867624"
     inkscape:cx="-11.115603"
     inkscape:cy="14.997757"
     inkscape:window-x="961"
     inkscape:window-y="16"
     inkscape:window-maximized="0"
     inkscape:current-layer="svg4">
    <sodipodi:guide
       position="7.9322034,0.99152542"
       orientation="0,1"
       id="guide40031"
       inkscape:locked="false" />
    <sodipodi:guide
       position="22.983051,15.076271"
       orientation="1,0"
       id="guide40033"
       inkscape:locked="false" />
    <sodipodi:guide
       position="1,8.0538264"
       orientation="1,0"
       id="guide40062"
       inkscape:locked="false" />
    <sodipodi:guide
       position="5.2134144,23"
       orientation="0,1"
       id="guide40064"
       inkscape:locked="false" />
    <sodipodi:guide
       position="12,23"
       orientation="1,0"
       id="guide40074"
       inkscape:locked="false" />
    <sodipodi:guide
       position="20.59,15"
       orientation="1,0"
       id="guide40076"
       inkscape:locked="false" />
  </sodipodi:namedview>
  <path
     d="M 15 1 C 14.72 1 14.469063 1.1090625 14.289062 1.2890625 L 10.5 5.0800781 L 9.7695312 4.3300781 L 3.0507812 11.050781 C 1.7807813 12.320781 1 14.07 1 16 C 1 19.87 4.13 23 8 23 C 9.8432914 23 11.515975 22.281662 12.769531 21.111328 A 4.2950009 4.3826061 0 0 1 12 18.617188 A 4.2950009 4.3826061 0 0 1 16.294922 14.234375 A 4.2950009 4.3826061 0 0 1 18.822266 15.078125 L 19.669922 14.230469 L 18.929688 13.5 L 22.660156 9.7597656 C 22.870156 9.5697656 23 9.3 23 9 C 23 8.76 22.919297 8.5391406 22.779297 8.3691406 L 22.779297 8.359375 L 15.710938 1.2890625 C 15.530938 1.1090625 15.28 1 15 1 z M 15 3.4101562 L 20.589844 9 L 17.5 12.080078 L 11.929688 6.5 L 15 3.4101562 z M 15.070312 4.6894531 L 13.660156 6.0996094 L 15.070312 7.5 L 16.5 6.0996094 L 15.070312 4.6894531 z M 17.900391 7.5 L 16.5 8.9296875 L 17.900391 10.339844 L 19.310547 8.9296875 L 17.900391 7.5 z M 8 13 C 9.66 13 11 14.34 11 16 C 11 17.66 9.66 19 8 19 C 6.34 19 5 17.66 5 16 C 5 14.34 6.34 13 8 13 z M 8 15 C 7.45 15 7 15.45 7 16 C 7 16.55 7.45 17 8 17 C 8.55 17 9 16.55 9 16 C 9 15.45 8.55 15 8 15 z "
     id="path2" />
  <path
     inkscape:connector-curvature="0"
     style="stroke-width:0.6437856"
     d="m 15.651214,15.398466 a 1.2875712,1.2875712 0 0 0 -1.287571,1.287571 v 3.862714 a 1.2875712,1.2875712 0 0 0 1.287571,1.287572 h 1.287571 a 1.2875712,1.2875712 0 0 0 1.287571,-1.287572 v -0.643785 h -1.287571 v 0.643785 h -1.287571 v -3.862714 h 1.287571 v 0.643787 h 1.287571 v -0.643787 a 1.2875712,1.2875712 0 0 0 -1.287571,-1.287571 z"
     id="path40046" />
</svg>
