<?xml version="1.0" encoding="UTF-8" standalone="no"?>
<svg
   xmlns:dc="http://purl.org/dc/elements/1.1/"
   xmlns:cc="http://creativecommons.org/ns#"
   xmlns:rdf="http://www.w3.org/1999/02/22-rdf-syntax-ns#"
   xmlns:svg="http://www.w3.org/2000/svg"
   xmlns="http://www.w3.org/2000/svg"
   xmlns:sodipodi="http://sodipodi.sourceforge.net/DTD/sodipodi-0.dtd"
   xmlns:inkscape="http://www.inkscape.org/namespaces/inkscape"
   version="1.1"
   width="24"
   height="24"
   viewBox="0 0 24 24"
   id="svg4"
   sodipodi:docname="feature-hotp.svg"
   inkscape:version="0.92.4 (5da689c313, 2019-01-14)">
  <metadata
     id="metadata10">
    <rdf:RDF>
      <cc:Work
         rdf:about="">
        <dc:format>image/svg+xml</dc:format>
        <dc:type
           rdf:resource="http://purl.org/dc/dcmitype/StillImage" />
      </cc:Work>
    </rdf:RDF>
  </metadata>
  <defs
     id="defs8" />
  <sodipodi:namedview
     pagecolor="#ffffff"
     bordercolor="#666666"
     borderopacity="1"
     objecttolerance="10"
     gridtolerance="10"
     guidetolerance="10"
     inkscape:pageopacity="0"
     inkscape:pageshadow="2"
     inkscape:window-width="1902"
     inkscape:window-height="1016"
     id="namedview6"
     showgrid="false"
     showguides="true"
     inkscape:guide-bbox="true"
     inkscape:snap-bbox="true"
     inkscape:snap-bbox-edge-midpoints="true"
     inkscape:bbox-nodes="true"
     inkscape:zoom="23.570226"
     inkscape:cx="18.330468"
     inkscape:cy="11.037418"
     inkscape:window-x="961"
     inkscape:window-y="16"
     inkscape:window-maximized="0"
     inkscape:current-layer="svg4">
    <sodipodi:guide
       position="2,0"
       orientation="1,0"
       id="guide36339"
       inkscape:locked="false"
       inkscape:label=""
       inkscape:color="rgb(0,0,255)" />
    <sodipodi:guide
       position="0,2"
       orientation="0,1"
       id="guide36341"
       inkscape:locked="false"
       inkscape:label=""
       inkscape:color="rgb(0,0,255)" />
    <sodipodi:guide
       position="25.964961,24.310331"
       orientation="0,1"
       id="guide36343"
       inkscape:locked="false"
       inkscape:label=""
       inkscape:color="rgb(0,0,255)" />
    <sodipodi:guide
       position="22,23.730024"
       orientation="1,0"
       id="guide36345"
       inkscape:locked="false"
       inkscape:label=""
       inkscape:color="rgb(0,0,255)" />
    <sodipodi:guide
       position="24.946727,25.583123"
       orientation="0,1"
       id="guide36347"
       inkscape:locked="false" />
    <sodipodi:guide
       position="30.88,21.066737"
       orientation="1,0"
       id="guide36397"
       inkscape:locked="false" />
    <sodipodi:guide
       position="-11.200571,3.9880822"
       orientation="0,1"
       id="guide72494"
       inkscape:locked="false" />
  </sodipodi:namedview>
  <path
     d="M 8.5 2.0117188 C 6 2.0117188 4 4.0117188 4 6.5117188 L 4 7.0117188 C 2.89 7.0117188 2 7.9017184 2 9.0117188 L 2 18.011719 C 2 19.121719 2.89 20.011719 4 20.011719 L 6.5585938 20.011719 L 6.5585938 20.46875 A 1.5440946 1.5440946 0 0 0 8.1035156 22.011719 L 20.455078 22.011719 A 1.5440946 1.5440946 0 0 0 22 20.46875 L 22 11.203125 A 1.5440946 1.5440946 0 0 0 20.455078 9.6582031 L 15 9.6582031 L 15 9.0117188 C 15 7.9017184 14.11 7.0117187 13 7.0117188 L 13 6.5117188 C 13 4.0117188 11 2.0117188 8.5 2.0117188 z M 8.5 4.0117188 C 9.880712 4.0117188 11 5.1310068 11 6.5117188 L 11 7.0117188 L 8.5 7.0117188 L 6 7.0117188 L 6 6.5117188 C 6 5.1310069 7.119288 4.0117188 8.5 4.0117188 z M 8.1035156 11.203125 L 13.507812 11.203125 L 13.507812 20.46875 L 8.1035156 20.46875 L 8.1035156 11.203125 z M 15.050781 11.203125 L 16.017578 11.203125 C 15.731998 11.704955 15.722656 12.214844 15.722656 12.214844 L 16.912109 12.207031 C 16.912109 12.207031 16.804289 11.241735 17.753906 11.203125 C 18.842494 11.203125 18.40301 12.492812 18.294922 12.708984 C 18.179116 12.932878 15.824219 15.425781 15.824219 15.425781 L 15.855469 16.199219 L 19.869141 16.220703 L 19.861328 15.279297 L 17.298828 15.294922 L 19.097656 13.326172 C 19.228905 13.133159 19.590491 12.593445 19.644531 12.076172 C 19.644531 12.02985 19.683336 11.62003 19.498047 11.203125 L 20.455078 11.203125 L 20.455078 20.46875 L 19.197266 20.46875 L 18.796875 20.181641 C 19.684717 19.818779 19.652344 18.853516 19.652344 18.853516 C 19.652344 18.853516 19.76123 17.294922 17.753906 17.294922 C 15.785176 17.294922 15.753906 18.884766 15.753906 18.884766 L 16.927734 18.884766 C 16.927734 18.251693 17.653537 18.212891 17.753906 18.212891 C 17.869714 18.212891 18.525011 18.21428 18.494141 18.986328 C 18.486421 19.673452 17.785156 19.796875 17.785156 19.796875 L 17.035156 19.804688 L 17.042969 20.46875 L 15.050781 20.46875 L 15.050781 11.203125 z M 11.777344 13.064453 L 9.3535156 13.927734 L 9.3535156 14.878906 L 10.744141 14.445312 L 10.744141 18.923828 L 11.902344 18.923828 L 11.902344 13.064453 L 11.777344 13.064453 z "
     id="path36384" />
</svg>
