<?xml version="1.0" encoding="UTF-8" standalone="no"?>
<svg
   xmlns:dc="http://purl.org/dc/elements/1.1/"
   xmlns:cc="http://creativecommons.org/ns#"
   xmlns:rdf="http://www.w3.org/1999/02/22-rdf-syntax-ns#"
   xmlns:svg="http://www.w3.org/2000/svg"
   xmlns="http://www.w3.org/2000/svg"
   xmlns:sodipodi="http://sodipodi.sourceforge.net/DTD/sodipodi-0.dtd"
   xmlns:inkscape="http://www.inkscape.org/namespaces/inkscape"
   version="1.1"
   width="24"
   height="24"
   viewBox="0 0 24 24"
   id="svg184887"
   sodipodi:docname="card-key.svg"
   inkscape:version="0.92.4 (5da689c313, 2019-01-14)">
  <metadata
     id="metadata184893">
    <rdf:RDF>
      <cc:Work
         rdf:about="">
        <dc:format>image/svg+xml</dc:format>
        <dc:type
           rdf:resource="http://purl.org/dc/dcmitype/StillImage" />
        <dc:title></dc:title>
      </cc:Work>
    </rdf:RDF>
  </metadata>
  <defs
     id="defs184891" />
  <sodipodi:namedview
     pagecolor="#ffffff"
     bordercolor="#666666"
     borderopacity="1"
     objecttolerance="10"
     gridtolerance="10"
     guidetolerance="10"
     inkscape:pageopacity="0"
     inkscape:pageshadow="2"
     inkscape:window-width="1902"
     inkscape:window-height="1016"
     id="namedview184889"
     showgrid="false"
     inkscape:zoom="19.666667"
     inkscape:cx="13.508269"
     inkscape:cy="6.9241781"
     inkscape:window-x="961"
     inkscape:window-y="16"
     inkscape:window-maximized="0"
     inkscape:current-layer="svg184887" />
  <path
     d="M 2 3 C 0.8954305 3 0 3.8954305 0 5 L 0 19 C 0 20.104569 0.8954305 21 2 21 L 22 21 C 23.104569 21 24 20.104569 24 19 L 24 5 C 24 3.8954305 23.104569 3 22 3 L 2 3 z M 8 6 C 9.6568542 6 11 7.3431458 11 9 C 11 10.656854 9.6568542 12 8 12 C 6.3431458 12 5 10.656854 5 9 C 5 7.3431458 6.3431458 6 8 6 z M 18.5 6 A 3 3 0 0 1 21.5 9 C 21.5 10.309984 20.66999 11.420074 19.5 11.830078 L 19.5 14 L 21.5 14 L 21.5 16 L 19.5 16 L 19.5 18 L 17.5 18 L 17.5 11.830078 C 16.33001 11.420074 15.5 10.309985 15.5 9 A 3 3 0 0 1 18.5 6 z M 18.5 8 A 1 1 0 0 0 17.5 9 A 1 1 0 0 0 18.5 10 A 1 1 0 0 0 19.5 9 A 1 1 0 0 0 18.5 8 z M 8 13.900391 C 10 13.900391 14 15 14 17 L 14 18 L 2 18 L 2 17 C 2 15 6 13.900391 8 13.900391 z "
     id="path184885" />
</svg>
